<?xml version="1.0" standalone="no"?>
<!DOCTYPE svg PUBLIC "-//W3C//DTD SVG 20010904//EN"
 "http://www.w3.org/TR/2001/REC-SVG-20010904/DTD/svg10.dtd">
<svg version="1.0" xmlns="http://www.w3.org/2000/svg"
 width="1092.000000pt" height="1280.000000pt" viewBox="0 0 1092.000000 1280.000000"
 preserveAspectRatio="xMidYMid meet">
<metadata>
Created by potrace 1.15, written by Peter Selinger 2001-2017
</metadata>
<g transform="translate(0.000000,1280.000000) scale(0.100000,-0.100000)"
fill="#000000" stroke="none">
<path d="M6655 12780 c-154 -24 -302 -62 -562 -144 -411 -129 -558 -156 -620
-117 -17 11 -51 50 -76 88 -24 37 -56 79 -70 92 -26 23 -30 24 -134 17 -227
-13 -492 -63 -938 -176 -597 -152 -711 -179 -844 -204 -73 -14 -139 -31 -147
-37 -12 -10 -161 -6 -224 7 -20 4 -6 -14 63 -84 74 -74 88 -94 87 -118 -7 -94
-1 -111 50 -174 28 -33 135 -145 239 -248 198 -197 274 -290 336 -410 45 -87
81 -128 121 -138 42 -10 104 -65 193 -168 123 -144 159 -197 171 -250 7 -33 8
-117 4 -253 l-7 -203 -26 0 c-45 0 -209 -38 -304 -71 -285 -96 -744 -378
-1297 -797 -219 -166 -238 -183 -276 -246 -52 -87 -342 -381 -436 -441 -51
-34 -77 -60 -111 -112 -45 -70 -94 -131 -257 -320 -68 -79 -115 -146 -165
-237 -74 -135 -97 -163 -212 -263 -57 -51 -78 -77 -106 -135 -26 -55 -53 -91
-107 -143 -54 -52 -81 -89 -108 -144 -19 -41 -51 -91 -69 -112 -34 -37 -93
-66 -112 -55 -16 10 -59 -12 -77 -39 -12 -18 -18 -54 -20 -121 -4 -80 -10
-111 -40 -187 -35 -93 -83 -167 -119 -187 -15 -8 -24 -32 -37 -97 -20 -103
-66 -201 -125 -264 -42 -45 -44 -51 -58 -144 -20 -133 -47 -244 -85 -345 -82
-218 -82 -218 -90 -370 -5 -80 -15 -192 -24 -250 -27 -189 -39 -407 -33 -605
12 -343 53 -614 184 -1200 40 -175 51 -213 70 -228 33 -26 58 -79 88 -186 48
-170 184 -419 347 -634 34 -45 146 -184 248 -308 102 -124 206 -253 232 -287
29 -38 64 -70 90 -83 24 -12 84 -65 133 -117 226 -239 216 -230 425 -349 510
-290 934 -498 1372 -673 233 -94 634 -230 852 -289 1032 -282 2041 -292 2966
-30 814 230 1629 673 2435 1324 88 71 194 156 235 190 41 33 117 100 169 149
52 49 130 112 174 140 71 47 80 57 102 109 35 87 96 188 206 342 129 181 206
311 235 394 13 37 33 139 45 226 23 173 14 148 140 395 22 41 46 102 54 135
29 115 94 531 106 680 14 173 7 460 -17 695 -8 85 -19 315 -24 510 -5 195 -14
384 -20 420 -7 44 -27 97 -62 165 -45 89 -52 109 -58 186 -6 70 -15 100 -44
158 -31 62 -37 86 -46 184 -54 578 -232 1014 -604 1481 -102 128 -207 246
-381 426 -78 80 -165 174 -194 210 -242 296 -580 597 -1091 971 -230 169 -251
182 -325 204 -95 27 -161 63 -223 119 -32 30 -98 74 -150 101 -91 47 -93 48
-75 67 15 17 25 19 63 13 70 -11 108 -10 200 5 66 11 214 15 660 15 631 1 602
-1 765 65 52 21 106 34 155 39 78 7 143 35 184 80 11 12 28 21 38 21 12 0 22
9 25 21 4 16 35 35 107 70 130 61 178 97 205 151 56 117 -1 239 -141 303 -112
51 -180 60 -453 59 -271 0 -364 -11 -662 -74 -107 -23 -169 -43 -254 -82 -96
-43 -126 -52 -200 -59 -95 -9 -180 -38 -251 -87 -57 -39 -136 -78 -173 -86
-32 -6 -60 5 -54 22 10 28 313 372 423 481 69 67 142 147 161 177 51 76 96
117 169 153 55 27 69 39 95 85 30 53 81 102 153 145 20 12 39 30 42 39 10 31
90 119 168 187 96 83 121 137 120 260 -1 169 -92 320 -238 395 l-49 25 -275
-2 c-421 -2 -515 -24 -962 -226 -440 -199 -551 -234 -613 -193 -14 9 -25 20
-25 24 0 5 37 23 83 41 45 18 116 53 157 77 82 47 208 146 217 171 10 27 -46
120 -103 172 -59 54 -133 94 -215 117 -89 25 -323 27 -464 4z"/>
</g>
</svg>
